<?xml version="1.0" ?><svg height="128" id="svg8" version="1.1" viewBox="0 0 33.866666 33.866668" width="128" xmlns="http://www.w3.org/2000/svg" xmlns:cc="http://creativecommons.org/ns#" xmlns:dc="http://purl.org/dc/elements/1.1/" xmlns:inkscape="http://www.inkscape.org/namespaces/inkscape" xmlns:rdf="http://www.w3.org/1999/02/22-rdf-syntax-ns#" xmlns:sodipodi="http://sodipodi.sourceforge.net/DTD/sodipodi-0.dtd" xmlns:svg="http://www.w3.org/2000/svg" xmlns:xlink="http://www.w3.org/1999/xlink"><defs id="defs2"><linearGradient id="linearGradient2202"><stop id="stop2198" offset="0" style="stop-color:#f6f600;stop-opacity:1;"/><stop id="stop2200" offset="1" style="stop-color:#f69134;stop-opacity:1"/></linearGradient><linearGradient gradientTransform="matrix(0.39352029,0,0,0.39352035,-185.27183,93.82285)" gradientUnits="userSpaceOnUse" id="linearGradient3363" x1="12.262755" x2="12.262755" xlink:href="#linearGradient2202" y1="9.0164375" y2="14.680936"/><clipPath clipPathUnits="userSpaceOnUse" id="clipPath3457"><rect height="58.93293" id="rect3459" rx="2.6458333" ry="2.6458333" style="fill:#1a1a1a;stroke-width:0.264583;stroke-linecap:square;stroke-dasharray:0.264583, 1.05833;paint-order:fill markers stroke" width="61.739258" x="-262.11121" y="114.49826"/></clipPath><clipPath clipPathUnits="userSpaceOnUse" id="clipPath3791"><ellipse cx="-93.170158" cy="29.747097" id="ellipse3793" rx="45.275459" ry="42.469128" style="fill:#f979e8;fill-opacity:1;stroke:#000080;stroke-width:2.64583;stroke-linecap:round;stroke-linejoin:round;stroke-miterlimit:4;stroke-dasharray:none;stroke-dashoffset:0;paint-order:fill markers stroke"/></clipPath><clipPath clipPathUnits="userSpaceOnUse" id="clipPath3930"><rect height="70.643745" id="rect3932" rx="1.9410441" ry="1.9410441" style="fill:none;fill-opacity:1;stroke:#c82866;stroke-width:0.264583;stroke-linecap:square;stroke-linejoin:miter;stroke-miterlimit:4;stroke-dasharray:0.264583, 1.05833;stroke-dashoffset:0;stroke-opacity:1;paint-order:fill markers stroke" width="73.818748" x="-52.652084" y="51.064583"/></clipPath></defs><g id="layer1"><path d="M 21.513672 4 A 12.584078 12.584078 0 0 0 9.0097656 16.583984 A 12.584078 12.584078 0 0 0 21.59375 29.167969 A 12.584078 12.584078 0 0 0 34.177734 16.583984 A 12.584078 12.584078 0 0 0 21.59375 4 A 12.584078 12.584078 0 0 0 21.513672 4 z M 15 39.228516 C 11.67603 39.228516 9 41.904535 9 45.228516 L 9 118.03125 C 9 121.35523 11.67602 124.03125 15 124.03125 L 27.638672 124.03125 C 30.962662 124.03125 33.638682 121.35523 33.638672 118.03125 L 33.638672 45.228516 C 33.638682 41.904535 30.962662 39.228516 27.638672 39.228516 L 15 39.228516 z M 51.783203 39.228516 C 48.459233 39.228516 45.783203 41.904535 45.783203 45.228516 L 45.783203 118.03125 C 45.783203 121.35523 48.459222 124.03125 51.783203 124.03125 L 64.421875 124.03125 C 67.745867 124.03125 70.421886 121.35523 70.421875 118.03125 L 70.421875 76.617188 C 78.270103 66.178987 94.376953 69.261665 94.376953 82.623047 L 94.376953 118.03125 C 94.376953 121.35523 97.052972 124.03125 100.37695 124.03125 L 113.01562 124.03125 C 116.33962 124.03125 119.01564 121.35523 119.01562 118.03125 L 119.01562 69.5 C 119.01571 45.455041 82.154814 39.152991 70.421875 51.166016 L 70.421875 45.228516 C 70.421886 41.904535 67.745867 39.228516 64.421875 39.228516 L 51.783203 39.228516 z " id="path4157" style="stroke:none;stroke-width:0.999999;stroke-linecap:square;stroke-dasharray:0.999999, 3.99999;paint-order:fill markers stroke" transform="scale(0.26458333)"/></g></svg>